HIERARCHY
ROOT Hips
{
    OFFSET   0.000000   0.000000   0.000000
    CHANNELS 6 Xposition Yposition Zposition Zrotation Xrotation Yrotation
    JOINT Chest
    {
        OFFSET   0.000000   8.007240   0.000000
        CHANNELS 3 Zrotation Xrotation Yrotation
        JOINT Chest2
        {
            OFFSET   0.000000  22.077100   0.000000
            CHANNELS 3 Zrotation Xrotation Yrotation
            JOINT Neck
            {
                OFFSET   0.000000  23.254800   0.000000
                CHANNELS 3 Zrotation Xrotation Yrotation
                JOINT Head
                {
                    OFFSET   0.000000  14.370000   1.956600
                    CHANNELS 3 Zrotation Xrotation Yrotation
                    End Site
                    {
                        OFFSET   0.000000  19.566000   0.000000
                    }
                }
            }
            JOINT LeftCollar
            {
                OFFSET   3.911900  19.017000  -0.467064
                CHANNELS 3 Zrotation Xrotation Yrotation
                JOINT LeftShoulder
                {
                    OFFSET  10.383700   0.000000   0.000000
                    CHANNELS 3 Zrotation Xrotation Yrotation
                    JOINT LeftElbow
                    {
                        OFFSET  26.662100   0.001476   0.000517
                        CHANNELS 3 Zrotation Xrotation Yrotation
                        JOINT LeftWrist
                        {
                            OFFSET  28.869000  -0.000025  -0.000106
                            CHANNELS 3 Zrotation Xrotation Yrotation
                            JOINT LeftFinger0
                            {
                                OFFSET   2.044660  -2.323460   3.252850
                                CHANNELS 3 Zrotation Xrotation Yrotation
                                JOINT LeftFinger01
                                {
                                    OFFSET   3.088130   0.000000   0.000000
                                    CHANNELS 3 Zrotation Xrotation Yrotation
                                    JOINT LeftFinger02
                                    {
                                        OFFSET   2.639460   0.000000   0.000000
                                        CHANNELS 3 Zrotation Xrotation Yrotation
                                        End Site
                                        {
                                            OFFSET   2.582190   0.000000   0.000000
                                        }
                                    }
                                }
                            }
                            JOINT LeftFinger1
                            {
                                OFFSET   8.364480   0.000000   3.252850
                                CHANNELS 3 Zrotation Xrotation Yrotation
                                JOINT LeftFinger11
                                {
                                    OFFSET   4.646930   0.000000   0.000000
                                    CHANNELS 3 Zrotation Xrotation Yrotation
                                    JOINT LeftFinger12
                                    {
                                        OFFSET   2.323460   0.000000   0.000000
                                        CHANNELS 3 Zrotation Xrotation Yrotation
                                        End Site
                                        {
                                            OFFSET   2.273050   0.000000   0.000000
                                        }
                                    }
                                }
                            }
                            JOINT LeftFinger2
                            {
                                OFFSET   8.364490   0.000015   1.078090
                                CHANNELS 3 Zrotation Xrotation Yrotation
                                JOINT LeftFinger21
                                {
                                    OFFSET   5.111620   0.000000   0.000000
                                    CHANNELS 3 Zrotation Xrotation Yrotation
                                    JOINT LeftFinger22
                                    {
                                        OFFSET   2.788160   0.000016   0.000000
                                        CHANNELS 3 Zrotation Xrotation Yrotation
                                        End Site
                                        {
                                            OFFSET   2.727660   0.000000   0.000000
                                        }
                                    }
                                }
                            }
                            JOINT LeftFinger3
                            {
                                OFFSET   7.899780   0.000017  -1.078090
                                CHANNELS 3 Zrotation Xrotation Yrotation
                                JOINT LeftFinger31
                                {
                                    OFFSET   4.646930   0.000000   0.000000
                                    CHANNELS 3 Zrotation Xrotation Yrotation
                                    JOINT LeftFinger32
                                    {
                                        OFFSET   2.323470   0.000000   0.000000
                                        CHANNELS 3 Zrotation Xrotation Yrotation
                                        End Site
                                        {
                                            OFFSET   2.273050   0.000000   0.000000
                                        }
                                    }
                                }
                            }
                            JOINT LeftFinger4
                            {
                                OFFSET   7.435090   0.000000  -3.252850
                                CHANNELS 3 Zrotation Xrotation Yrotation
                                JOINT LeftFinger41
                                {
                                    OFFSET   3.717550   0.000000   0.000000
                                    CHANNELS 3 Zrotation Xrotation Yrotation
                                    JOINT LeftFinger42
                                    {
                                        OFFSET   1.858770   0.000000   0.000000
                                        CHANNELS 3 Zrotation Xrotation Yrotation
                                        End Site
                                        {
                                            OFFSET   1.818440   0.000000   0.000000
                                        }
                                    }
                                }
                            }
                        }
                    }
                }
            }
            JOINT RightCollar
            {
                OFFSET  -3.911900  19.017000  -0.467063
                CHANNELS 3 Zrotation Xrotation Yrotation
                JOINT RightShoulder
                {
                    OFFSET -10.383700   0.000019   0.000000
                    CHANNELS 3 Zrotation Xrotation Yrotation
                    JOINT RightElbow
                    {
                        OFFSET -26.662100   0.001175   0.000102
                        CHANNELS 3 Zrotation Xrotation Yrotation
                        JOINT RightWrist
                        {
                            OFFSET -28.869000   0.000016  -0.000079
                            CHANNELS 3 Zrotation Xrotation Yrotation
                            JOINT RightFinger0
                            {
                                OFFSET  -2.044660  -2.323490   3.252850
                                CHANNELS 3 Zrotation Xrotation Yrotation
                                JOINT RightFinger01
                                {
                                    OFFSET  -3.088140   0.000000   0.000000
                                    CHANNELS 3 Zrotation Xrotation Yrotation
                                    JOINT RightFinger02
                                    {
                                        OFFSET  -2.639460   0.000000   0.000000
                                        CHANNELS 3 Zrotation Xrotation Yrotation
                                        End Site
                                        {
                                            OFFSET  -2.582190   0.000000   0.000000
                                        }
                                    }
                                }
                            }
                            JOINT RightFinger1
                            {
                                OFFSET  -8.364480   0.000000   3.252850
                                CHANNELS 3 Zrotation Xrotation Yrotation
                                JOINT RightFinger11
                                {
                                    OFFSET  -4.646930   0.000000   0.000000
                                    CHANNELS 3 Zrotation Xrotation Yrotation
                                    JOINT RightFinger12
                                    {
                                        OFFSET  -2.323470   0.000000   0.000000
                                        CHANNELS 3 Zrotation Xrotation Yrotation
                                        End Site
                                        {
                                            OFFSET  -2.273050   0.000000   0.000000
                                        }
                                    }
                                }
                            }
                            JOINT RightFinger2
                            {
                                OFFSET  -8.364480   0.000000   1.078090
                                CHANNELS 3 Zrotation Xrotation Yrotation
                                JOINT RightFinger21
                                {
                                    OFFSET  -5.111620   0.000000   0.000000
                                    CHANNELS 3 Zrotation Xrotation Yrotation
                                    JOINT RightFinger22
                                    {
                                        OFFSET  -2.788160   0.000000   0.000000
                                        CHANNELS 3 Zrotation Xrotation Yrotation
                                        End Site
                                        {
                                            OFFSET  -2.727660   0.000000   0.000000
                                        }
                                    }
                                }
                            }
                            JOINT RightFinger3
                            {
                                OFFSET  -7.899780   0.000000  -1.078090
                                CHANNELS 3 Zrotation Xrotation Yrotation
                                JOINT RightFinger31
                                {
                                    OFFSET  -4.646930   0.000000   0.000000
                                    CHANNELS 3 Zrotation Xrotation Yrotation
                                    JOINT RightFinger32
                                    {
                                        OFFSET  -2.323470   0.000000   0.000000
                                        CHANNELS 3 Zrotation Xrotation Yrotation
                                        End Site
                                        {
                                            OFFSET  -2.273050   0.000000   0.000000
                                        }
                                    }
                                }
                            }
                            JOINT RightFinger4
                            {
                                OFFSET  -7.435090   0.000000  -3.252850
                                CHANNELS 3 Zrotation Xrotation Yrotation
                                JOINT RightFinger41
                                {
                                    OFFSET  -3.717550   0.000000   0.000000
                                    CHANNELS 3 Zrotation Xrotation Yrotation
                                    JOINT RightFinger42
                                    {
                                        OFFSET  -1.858770   0.000000   0.000000
                                        CHANNELS 3 Zrotation Xrotation Yrotation
                                        End Site
                                        {
                                            OFFSET  -1.818440   0.000000   0.000000
                                        }
                                    }
                                }
                            }
                        }
                    }
                }
            }
        }
    }
    JOINT LeftHip
    {
        OFFSET   9.783040   0.000000   0.000000
        CHANNELS 3 Zrotation Xrotation Yrotation
        JOINT LeftKnee
        {
            OFFSET   0.000032 -41.789100  -0.002222
            CHANNELS 3 Zrotation Xrotation Yrotation
            JOINT LeftAnkle
            {
                OFFSET   0.000087 -41.133200  -0.000135
                CHANNELS 3 Zrotation Xrotation Yrotation
                JOINT LeftToe
                {
                    OFFSET   0.000000  -6.358960  14.674500
                    CHANNELS 3 Zrotation Xrotation Yrotation
                    End Site
                    {
                        OFFSET   0.000000   0.000000   3.913200
                    }
                }
            }
        }
    }
    JOINT RightHip
    {
        OFFSET  -9.783040   0.000000   0.000000
        CHANNELS 3 Zrotation Xrotation Yrotation
        JOINT RightKnee
        {
            OFFSET   0.000047 -41.789100  -0.000896
            CHANNELS 3 Zrotation Xrotation Yrotation
            JOINT RightAnkle
            {
                OFFSET  -0.000117 -41.133300  -0.000248
                CHANNELS 3 Zrotation Xrotation Yrotation
                JOINT RightToe
                {
                    OFFSET   0.000000  -6.358970  14.674500
                    CHANNELS 3 Zrotation Xrotation Yrotation
                    End Site
                    {
                        OFFSET   0.000000   0.000000   3.913200
                    }
                }
            }
        }
    }
}
MOTION
Frames: 4
Frame Time:   0.016667
 -7.391190  88.953300   0.935815   2.382790 -16.405300  12.331900   5.356760   8.912220  -0.509910  10.996700  17.735100  -1.906600   2.645010  -4.731320   0.229351   4.428960  -9.532520 -31.970300   0.000836  -2.322620  -0.647751 -36.962300 -35.825500 -54.836600   9.519130 -23.480300 -110.923000  -4.358610  44.672200   7.976680  59.040400  54.333300 -108.293000  15.674500   0.002531   0.005366  12.837200   0.001346  -0.005123 -16.736500  -1.216150   4.042900 -13.728900   0.004944   0.001965  -9.610210   0.001255  -0.004670 -17.705300  -2.850330   8.853830 -17.926400   0.002793   0.001897 -11.939000   0.001419  -0.002416 -16.219500  -3.568250  12.078100 -16.597500   0.000663  -0.001507 -11.053900   0.004810  -0.002523 -14.592100  -3.272260  12.369800 -22.420700   0.005499  -0.001416 -14.932200  -0.000285  -0.000526   3.139430   1.647540  10.287600  65.734900  15.057600  -0.913618  -1.473800  -2.251800  15.516000 -16.757300 -17.117300   3.350020 -39.465200  28.753400  67.949000  23.756100   0.000300   0.000000   6.878060  -0.002217   0.007414  32.156000   4.545300   7.184630  26.543000  -0.004488  -0.000536  18.580100  -0.001034  -0.007385  28.417100   2.014370   3.716850  35.957600  -0.007284  -0.000730  23.947800   0.006018  -0.000906  28.732400   1.184160   2.159030  40.318800  -0.001706  -0.002915  26.852300  -0.004866  -0.001333  39.838600  -1.027740  -1.231600  59.774400  -0.003593   0.002411  39.809800  -0.004137   0.002725   4.234820  11.641200   2.926760   6.140610  12.487000   5.702780  -9.263290  -5.714670  -3.825730  -0.000000   0.000000  -0.000000   5.273380  14.738200  -9.918390   2.567390   3.970900 -11.627000  -7.435630  -4.321350  -4.641360   0.000000   0.000000  -0.000000
 -7.478290  88.944900   0.921527   2.407100 -16.387100  12.399200   5.360690   8.894520  -0.534681  11.008600  17.697500  -1.956340   2.654490  -4.745780   0.228941   4.441260  -9.561120 -31.983700  -0.012751  -2.269360  -0.642682 -36.920800 -35.911900 -54.711400   9.355380 -23.419300 -110.670000  -4.278880  44.857900   7.844140  59.040400  54.333300 -108.293000  15.683300   0.002437   0.005304  12.841600   0.001315  -0.004984 -16.550400  -1.122290   3.771020 -13.571200   0.005144   0.001937  -9.499830   0.001353  -0.004691 -17.708600  -2.761140   8.586920 -17.926400   0.003039   0.001879 -11.939000   0.001374  -0.002366 -16.181100  -3.474470  11.794000 -16.544000   0.000672  -0.001472 -11.018300   0.004847  -0.002482 -14.481200  -3.187310  12.147200 -22.221500   0.005394  -0.001343 -14.799600  -0.000292  -0.000493   3.148730   1.665090  10.277500  65.736900  14.972900  -0.938720  -1.486440  -2.230710  15.539000 -16.787800 -17.158400   3.343640 -39.471400  28.765900  67.972700  23.748000   0.000426  -0.000070   6.874020  -0.001992   0.007465  32.174700   4.545140   7.182170  26.558200  -0.004566  -0.000529  18.590700  -0.001240  -0.007446  28.420200   2.012720   3.713420  35.990500  -0.007348  -0.000686  23.969700   0.006106  -0.000889  28.732900   1.180550   2.152370  40.355000  -0.001650  -0.002727  26.876400  -0.004952  -0.001211  39.861800  -1.034460  -1.238630  59.809400  -0.003616   0.002414  39.833100  -0.003945   0.002702   4.222210  11.631200   2.927090   6.152870  12.486700   5.666160  -9.266960  -5.726540  -3.856590  -0.000000   0.000000   0.000000   5.280430  14.752600  -9.920120   2.554460   3.964620 -11.648800  -7.427110  -4.348530  -4.693280   0.000000   0.000000  -0.000000
 -7.555570  88.935700   0.913710   2.428640 -16.367000  12.457100   5.363020   8.876450  -0.549220  11.013600  17.659800  -1.983540   2.675640  -4.760030   0.228618   4.481190  -9.589000 -32.005500  -0.021415  -2.220000  -0.636178 -36.888100 -35.988700 -54.600100   9.294700 -23.360900 -110.535000  -4.154910  44.956200   7.692690  59.040400  54.333300 -108.293000  15.700700   0.002346   0.005240  12.850300   0.001282  -0.004843 -16.386200  -1.022710   3.471660 -13.431800   0.005343   0.001910  -9.402270   0.001452  -0.004711 -17.734000  -2.666780   8.279940 -17.926500   0.003284   0.001859 -11.939000   0.001328  -0.002311 -16.189400  -3.377620  11.472200 -16.528200   0.000679  -0.001437 -11.007700   0.004885  -0.002437 -14.405900  -3.103610  11.902800 -22.093700   0.005284  -0.001269 -14.714400  -0.000298  -0.000459   3.159840   1.679140  10.266000  65.746300  14.894500  -0.984181  -1.499710  -2.205730  15.573400 -16.803700 -17.197400   3.341070 -39.475900  28.790900  68.013600  23.746400   0.000547  -0.000148   6.873220  -0.001760   0.007518  32.195700   4.543990   7.171670  26.575100  -0.004646  -0.000526  18.602600  -0.001454  -0.007505  28.424200   2.005430   3.699370  36.025900  -0.007409  -0.000641  23.993200   0.006194  -0.000875  28.733800   1.170570   2.134040  40.393500  -0.001591  -0.002538  26.902100  -0.005035  -0.001091  39.887500  -1.041920  -1.246430  59.848200  -0.003638   0.002414  39.858900  -0.003754   0.002678   4.210770  11.627500   2.927110   6.158540  12.483100   5.648010  -9.270360  -5.738020  -3.885490  -0.000000   0.000000   0.000000   5.287760  14.769000  -9.923660   2.541380   3.953530 -11.663600  -7.419630  -4.370920  -4.736450  -0.000000   0.000000   0.000000
 -7.605380  88.926000   0.920167   2.441890 -16.344900  12.494500   5.364280   8.858400  -0.550998  11.014500  17.623300  -1.984320   2.705520  -4.773270   0.228428   4.530210  -9.614400 -32.026300  -0.028210  -2.186400  -0.616032 -36.863000 -36.025200 -54.514200   9.324360 -23.294800 -110.555000  -3.919810  44.800600   7.490380  59.040400  54.333300 -108.293000  15.726700   0.002273   0.005183  12.863300   0.001242  -0.004703 -16.287000  -0.939177   3.214440 -13.346900   0.005555   0.001887  -9.342870   0.001561  -0.004719 -17.804200  -2.578250   7.969160 -17.981000   0.003525   0.001829 -11.975300   0.001268  -0.002257 -16.235300  -3.291540  11.156100 -16.551100   0.000682  -0.001399 -11.023000   0.004929  -0.002387 -14.409100  -3.027860  11.626400 -22.082900   0.005152  -0.001186 -14.707200  -0.000293  -0.000408   3.173730   1.686270  10.261100  65.758300  14.841700  -1.041870  -1.507380  -2.170570  15.596000 -16.800000 -17.229500   3.344100 -39.474800  28.823900  68.058600  23.769800   0.000679  -0.000221   6.884880  -0.001533   0.007558  32.213400   4.532530   7.146930  26.588300  -0.004729  -0.000527  18.611800  -0.001674  -0.007563  28.428200   1.987290   3.665460  36.053100  -0.007468  -0.000594  24.011300   0.006285  -0.000869  28.735500   1.151940   2.100000  40.420000  -0.001529  -0.002348  26.919800  -0.005115  -0.000980  39.905600  -1.047300  -1.252040  59.875500  -0.003656   0.002412  39.877100  -0.003564   0.002656   4.207270  11.627600   2.919660   6.152830  12.475100   5.649490  -9.273190  -5.749720  -3.909140  -0.000000   0.000000  -0.000000   5.295700  14.779300  -9.931300   2.529260   3.941340 -11.663200  -7.418140  -4.387680  -4.766980   0.000000   0.000000   0.000000
